<svg width="149" height="171" viewBox="0 0 149 171" fill="none" xmlns="http://www.w3.org/2000/svg">
<g filter="url(#filter0_d_103_17)">
<g filter="url(#filter1_d_103_17)">
<path d="M4 83.4472C4 72.6223 12.7753 63.8469 23.6002 63.8469V109.796C12.7753 109.796 4 101.021 4 90.1957V83.4472Z" fill="white"/>
<path d="M9 83.4472C9 77.14 12.9993 71.767 18.6002 69.7256V103.917C12.9993 101.876 9 96.5028 9 90.1957V83.4472Z" stroke="white" stroke-width="9.80011"/>
</g>
<g filter="url(#filter2_d_103_17)">
<path d="M144.217 90.1957C144.217 101.021 135.442 109.796 124.617 109.796V63.8469C135.442 63.8469 144.217 72.6223 144.217 83.4472V90.1957Z" fill="white"/>
<path d="M139.217 90.1957C139.217 96.5028 135.218 101.876 129.617 103.917V69.7256C135.218 71.767 139.217 77.14 139.217 83.4472V90.1957Z" stroke="white" stroke-width="9.80011"/>
</g>
<path d="M16.0616 66.2653C16.0616 -15.088 132.155 -15.7548 132.155 66.2653" stroke="white" stroke-width="10"/>
<g filter="url(#filter3_d_103_17)">
<path d="M56.7698 151.311C56.7698 144.856 62.003 139.622 68.4586 139.622H79.7583C86.2139 139.622 91.4471 144.856 91.4471 151.311C91.4471 157.767 86.2139 163 79.7583 163H68.4586C62.003 163 56.7698 157.767 56.7698 151.311Z" fill="white"/>
<path d="M64.2698 151.311C64.2698 148.998 66.1452 147.122 68.4586 147.122H79.7583C82.0717 147.122 83.9471 148.998 83.9471 151.311C83.9471 153.625 82.0717 155.5 79.7583 155.5H68.4586C66.1452 155.5 64.2698 153.625 64.2698 151.311Z" stroke="white" stroke-width="11.6888"/>
</g>
<path d="M90.6934 151.308C128.806 155.669 135.617 123.838 134.259 107.378" stroke="white" stroke-width="10"/>
<path d="M37.9235 108.99C67.5729 132.349 97.0164 118.723 108.032 108.99" stroke="white" stroke-width="10"/>
</g>
<defs>
<filter id="filter0_d_103_17" x="0" y="2.38419e-06" width="148.217" height="171" filterUnits="userSpaceOnUse" color-interpolation-filters="sRGB">
<feFlood flood-opacity="0" result="BackgroundImageFix"/>
<feColorMatrix in="SourceAlpha" type="matrix" values="0 0 0 0 0 0 0 0 0 0 0 0 0 0 0 0 0 0 127 0" result="hardAlpha"/>
<feOffset dy="4"/>
<feGaussianBlur stdDeviation="2"/>
<feComposite in2="hardAlpha" operator="out"/>
<feColorMatrix type="matrix" values="0 0 0 0 0 0 0 0 0 0 0 0 0 0 0 0 0 0 0.25 0"/>
<feBlend mode="normal" in2="BackgroundImageFix" result="effect1_dropShadow_103_17"/>
<feBlend mode="normal" in="SourceGraphic" in2="effect1_dropShadow_103_17" result="shape"/>
</filter>
<filter id="filter1_d_103_17" x="0" y="63.8469" width="27.6002" height="53.949" filterUnits="userSpaceOnUse" color-interpolation-filters="sRGB">
<feFlood flood-opacity="0" result="BackgroundImageFix"/>
<feColorMatrix in="SourceAlpha" type="matrix" values="0 0 0 0 0 0 0 0 0 0 0 0 0 0 0 0 0 0 127 0" result="hardAlpha"/>
<feOffset dy="4"/>
<feGaussianBlur stdDeviation="2"/>
<feComposite in2="hardAlpha" operator="out"/>
<feColorMatrix type="matrix" values="0 0 0 0 0 0 0 0 0 0 0 0 0 0 0 0 0 0 0.25 0"/>
<feBlend mode="normal" in2="BackgroundImageFix" result="effect1_dropShadow_103_17"/>
<feBlend mode="normal" in="SourceGraphic" in2="effect1_dropShadow_103_17" result="shape"/>
</filter>
<filter id="filter2_d_103_17" x="120.617" y="63.8469" width="27.6002" height="53.949" filterUnits="userSpaceOnUse" color-interpolation-filters="sRGB">
<feFlood flood-opacity="0" result="BackgroundImageFix"/>
<feColorMatrix in="SourceAlpha" type="matrix" values="0 0 0 0 0 0 0 0 0 0 0 0 0 0 0 0 0 0 127 0" result="hardAlpha"/>
<feOffset dy="4"/>
<feGaussianBlur stdDeviation="2"/>
<feComposite in2="hardAlpha" operator="out"/>
<feColorMatrix type="matrix" values="0 0 0 0 0 0 0 0 0 0 0 0 0 0 0 0 0 0 0.25 0"/>
<feBlend mode="normal" in2="BackgroundImageFix" result="effect1_dropShadow_103_17"/>
<feBlend mode="normal" in="SourceGraphic" in2="effect1_dropShadow_103_17" result="shape"/>
</filter>
<filter id="filter3_d_103_17" x="52.7698" y="139.622" width="42.6773" height="31.3775" filterUnits="userSpaceOnUse" color-interpolation-filters="sRGB">
<feFlood flood-opacity="0" result="BackgroundImageFix"/>
<feColorMatrix in="SourceAlpha" type="matrix" values="0 0 0 0 0 0 0 0 0 0 0 0 0 0 0 0 0 0 127 0" result="hardAlpha"/>
<feOffset dy="4"/>
<feGaussianBlur stdDeviation="2"/>
<feComposite in2="hardAlpha" operator="out"/>
<feColorMatrix type="matrix" values="0 0 0 0 0 0 0 0 0 0 0 0 0 0 0 0 0 0 0.25 0"/>
<feBlend mode="normal" in2="BackgroundImageFix" result="effect1_dropShadow_103_17"/>
<feBlend mode="normal" in="SourceGraphic" in2="effect1_dropShadow_103_17" result="shape"/>
</filter>
</defs>
</svg>
