<svg width="438" height="171" viewBox="0 0 438 171" fill="none" xmlns="http://www.w3.org/2000/svg">
<path d="M198.712 99.448L206.2 59.192C206.499 57.7413 206.904 56.568 207.416 55.672C207.971 54.7333 208.675 54.0507 209.528 53.624C210.424 53.1547 211.491 52.92 212.728 52.92C213.539 52.92 214.285 53.048 214.968 53.304C215.693 53.56 216.163 53.9867 216.376 54.584C215.821 55.0533 215.331 55.6293 214.904 56.312C214.52 56.9947 214.179 57.848 213.88 58.872C213.624 59.8533 213.347 61.048 213.048 62.456L206.264 98.552L198.712 99.448ZM178.744 102.136C177.933 102.136 177.165 101.987 176.44 101.688C175.715 101.389 175.245 100.984 175.032 100.472C175.544 100.131 175.992 99.704 176.376 99.192C176.76 98.68 177.08 98.04 177.336 97.272C177.635 96.4613 177.891 95.48 178.104 94.328L183.416 65.976C183.8 63.9707 184.376 62.3067 185.144 60.984C185.912 59.6613 186.936 58.6587 188.216 57.976C189.496 57.2507 191.053 56.8453 192.888 56.76L185.272 95.736C184.973 97.2293 184.547 98.4453 183.992 99.384C183.48 100.365 182.797 101.069 181.944 101.496C181.091 101.923 180.024 102.136 178.744 102.136ZM173.24 74.04C171.96 74.04 170.851 73.7413 169.912 73.144C169.016 72.504 168.312 71.6293 167.8 70.52C167.288 69.4107 167.032 68.1093 167.032 66.616C167.032 64.568 167.523 62.584 168.504 60.664C169.528 58.7013 171.064 57.1013 173.112 55.864C175.16 54.6267 177.763 54.008 180.92 54.008C182.243 54.008 183.437 54.136 184.504 54.392C185.613 54.6053 186.637 54.904 187.576 55.288C188.557 55.6293 189.475 55.9493 190.328 56.248C191.181 56.504 192.013 56.6747 192.824 56.76L187.128 58.744L187 58.552C186.744 58.3813 186.296 58.1467 185.656 57.848C185.016 57.5493 183.949 57.4 182.456 57.4C179.896 57.4 177.891 58.1893 176.44 59.768C175.032 61.3467 174.328 63.544 174.328 66.36C174.328 67.5547 174.477 68.728 174.776 69.88C175.075 71.032 175.523 72.1627 176.12 73.272C175.693 73.528 175.224 73.72 174.712 73.848C174.243 73.976 173.752 74.04 173.24 74.04ZM186.168 80.44L186.936 75.96H205.624L204.792 80.44H186.168ZM227.26 100.28C224.828 100.28 222.716 99.832 220.924 98.936C219.175 97.9973 217.831 96.5893 216.892 94.712C215.953 92.8347 215.484 90.4667 215.484 87.608C215.484 84.92 215.847 82.2533 216.572 79.608C217.34 76.92 218.471 74.488 219.964 72.312C221.457 70.136 223.356 68.3867 225.66 67.064C228.007 65.7413 230.759 65.08 233.916 65.08C235.58 65.08 237.073 65.3147 238.396 65.784C239.719 66.2533 240.764 67.0213 241.532 68.088C242.3 69.1547 242.684 70.6053 242.684 72.44C242.684 74.9147 241.937 77.0053 240.444 78.712C238.993 80.376 237.052 81.656 234.62 82.552C232.188 83.4053 229.5 83.832 226.556 83.832C226.001 83.832 225.383 83.832 224.7 83.832C224.06 83.7893 223.527 83.7467 223.1 83.704C223.057 84.3867 223.015 85.0693 222.972 85.752C222.929 86.392 222.908 86.9893 222.908 87.544C222.908 89.848 223.335 91.6613 224.188 92.984C225.041 94.264 226.599 94.904 228.86 94.904C230.695 94.904 232.337 94.4773 233.788 93.624C235.239 92.728 236.369 91.4693 237.18 89.848C237.777 90.0187 238.183 90.36 238.396 90.872C238.609 91.384 238.716 91.9173 238.716 92.472C238.716 93.752 238.268 94.9893 237.372 96.184C236.476 97.3787 235.175 98.36 233.468 99.128C231.761 99.896 229.692 100.28 227.26 100.28ZM223.548 80.568C224.999 80.568 226.428 80.4187 227.836 80.12C229.287 79.8213 230.609 79.352 231.804 78.712C232.999 78.0293 233.937 77.176 234.62 76.152C235.345 75.0853 235.708 73.848 235.708 72.44C235.708 71.2027 235.409 70.2853 234.812 69.688C234.257 69.048 233.447 68.728 232.38 68.728C231.185 68.728 230.076 69.112 229.052 69.88C228.071 70.6053 227.217 71.5653 226.492 72.76C225.767 73.9547 225.148 75.2347 224.636 76.6C224.167 77.9653 223.804 79.288 223.548 80.568ZM248.958 100.28C247.593 100.28 246.505 99.896 245.694 99.128C244.926 98.36 244.542 97.2933 244.542 95.928C244.542 95.4587 244.585 94.904 244.67 94.264C244.755 93.624 244.862 92.8347 244.99 91.896C245.161 90.9573 245.395 89.784 245.694 88.376C245.993 86.968 246.334 85.2827 246.718 83.32C247.102 81.3573 247.571 79.032 248.126 76.344C248.681 73.656 249.321 70.584 250.046 67.128C250.473 64.696 250.835 62.328 251.134 60.024C251.433 57.6773 251.582 55.7147 251.582 54.136C251.582 53.624 251.561 53.176 251.518 52.792C251.475 52.3653 251.411 51.9813 251.326 51.64C251.753 51.384 252.265 51.1707 252.862 51C253.459 50.8293 254.078 50.744 254.718 50.744C255.827 50.744 256.851 51.0853 257.79 51.768C258.771 52.408 259.262 53.56 259.262 55.224C259.262 55.5653 259.177 56.248 259.006 57.272C258.835 58.296 258.622 59.4907 258.366 60.856C258.11 62.1787 257.833 63.5653 257.534 65.016C257.278 66.424 257.043 67.704 256.83 68.856C255.806 73.8053 254.974 77.8587 254.334 81.016C253.694 84.1307 253.182 86.584 252.798 88.376C252.457 90.168 252.201 91.4907 252.03 92.344C251.902 93.1973 251.817 93.7947 251.774 94.136C251.731 94.4773 251.71 94.776 251.71 95.032C251.71 95.672 251.859 96.184 252.158 96.568C252.499 96.952 252.99 97.1653 253.63 97.208C253.502 97.9333 253.182 98.5307 252.67 99C252.201 99.4267 251.646 99.7467 251.006 99.96C250.366 100.173 249.683 100.28 248.958 100.28ZM272.647 100.28C271.452 100.28 270.471 100.152 269.703 99.896C268.978 99.64 267.975 99.32 266.695 98.936L260.423 98.424L266.567 66.36L272.711 65.592L271.943 71.352C273.095 69.4747 274.524 67.96 276.231 66.808C277.98 65.656 279.986 65.08 282.247 65.08C284.295 65.08 285.959 65.6133 287.239 66.68C288.519 67.704 289.458 69.1333 290.055 70.968C290.652 72.76 290.951 74.8293 290.951 77.176C290.951 79.992 290.567 82.7653 289.799 85.496C289.074 88.2267 287.964 90.7013 286.471 92.92C284.978 95.1387 283.079 96.9307 280.775 98.296C278.471 99.6187 275.762 100.28 272.647 100.28ZM263.367 111.8C262.258 111.8 261.234 111.459 260.295 110.776C259.399 110.093 258.951 108.877 258.951 107.128C258.951 106.787 259.015 106.189 259.143 105.336C259.271 104.525 259.42 103.565 259.591 102.456C259.804 101.389 260.018 100.259 260.231 99.064C260.487 97.8693 260.722 96.7813 260.935 95.8L267.975 95.928C267.591 98.0187 267.25 100.195 266.951 102.456C266.652 104.76 266.503 106.744 266.503 108.408C266.503 108.835 266.524 109.261 266.567 109.688C266.61 110.115 266.674 110.499 266.759 110.84C266.332 111.096 265.82 111.309 265.223 111.48C264.626 111.693 264.007 111.8 263.367 111.8ZM273.735 96.44C275.015 96.44 276.167 96.056 277.191 95.288C278.258 94.52 279.175 93.4747 279.943 92.152C280.754 90.8293 281.415 89.2933 281.927 87.544C282.439 85.7947 282.823 83.9387 283.079 81.976C283.378 79.9707 283.527 77.9653 283.527 75.96C283.527 74.168 283.228 72.7387 282.631 71.672C282.034 70.5627 280.967 70.008 279.431 70.008C277.895 70.008 276.572 70.456 275.463 71.352C274.396 72.248 273.522 73.4 272.839 74.808C272.156 76.216 271.666 77.688 271.367 79.224L268.551 94.456C269.319 95.1387 270.151 95.6507 271.047 95.992C271.986 96.2907 272.882 96.44 273.735 96.44ZM304.011 100.28C301.835 100.28 300.064 99.768 298.699 98.744C297.376 97.6773 296.395 96.248 295.755 94.456C295.158 92.6213 294.859 90.5307 294.859 88.184C294.859 85.0267 295.286 82.0613 296.139 79.288C297.035 76.472 298.251 73.9973 299.787 71.864C301.366 69.7307 303.243 68.0667 305.419 66.872C307.595 65.6773 309.942 65.08 312.459 65.08C313.739 65.08 314.891 65.208 315.915 65.464C316.982 65.6773 318.112 66.0187 319.307 66.488L325.259 67.384C324.491 71.48 323.702 75.6187 322.891 79.8C322.123 83.9387 321.291 88.12 320.395 92.344C320.352 92.728 320.288 93.176 320.203 93.688C320.118 94.2 320.075 94.648 320.075 95.032C320.075 95.672 320.224 96.184 320.523 96.568C320.864 96.952 321.376 97.1653 322.059 97.208C321.846 97.9333 321.483 98.5307 320.971 99C320.502 99.4267 319.947 99.7467 319.307 99.96C318.71 100.173 318.027 100.28 317.259 100.28C316.107 100.28 315.126 99.96 314.315 99.32C313.504 98.7227 313.035 97.8267 312.907 96.632C311.798 97.6987 310.475 98.5733 308.939 99.256C307.446 99.9387 305.803 100.28 304.011 100.28ZM306.827 96.44C308.448 96.44 309.75 95.9067 310.731 94.84C311.755 93.7733 312.566 92.4507 313.163 90.872C313.76 89.2507 314.208 87.6933 314.507 86.2L317.323 70.904C316.47 70.2213 315.574 69.7307 314.635 69.432C313.739 69.0907 312.907 68.92 312.139 68.92C310.816 68.92 309.622 69.304 308.555 70.072C307.531 70.84 306.614 71.8853 305.803 73.208C305.035 74.5307 304.374 76.0667 303.819 77.816C303.307 79.5653 302.923 81.4427 302.667 83.448C302.411 85.4107 302.283 87.3947 302.283 89.4C302.283 91.3627 302.603 93.0267 303.243 94.392C303.883 95.7573 305.078 96.44 306.827 96.44ZM325.131 68.024L318.091 67.512C318.518 65.1653 318.88 62.7973 319.179 60.408C319.52 58.0187 319.712 55.9707 319.755 54.264C319.755 53.752 319.734 53.2827 319.691 52.856C319.691 52.4293 319.648 52.024 319.563 51.64C319.947 51.384 320.438 51.1707 321.035 51C321.632 50.8293 322.272 50.744 322.955 50.744C324.064 50.744 325.088 51.0853 326.027 51.768C326.966 52.408 327.435 53.5813 327.435 55.288C327.435 55.7573 327.307 56.6747 327.051 58.04C326.838 59.4053 326.56 60.984 326.219 62.776C325.878 64.568 325.515 66.3173 325.131 68.024ZM341.073 100.28C338.641 100.28 336.529 99.832 334.737 98.936C332.987 97.9973 331.643 96.5893 330.705 94.712C329.766 92.8347 329.297 90.4667 329.297 87.608C329.297 84.92 329.659 82.2533 330.385 79.608C331.152 76.92 332.283 74.488 333.777 72.312C335.27 70.136 337.169 68.3867 339.473 67.064C341.819 65.7413 344.571 65.08 347.729 65.08C349.393 65.08 350.886 65.3147 352.209 65.784C353.531 66.2533 354.577 67.0213 355.345 68.088C356.113 69.1547 356.497 70.6053 356.497 72.44C356.497 74.9147 355.75 77.0053 354.257 78.712C352.806 80.376 350.865 81.656 348.433 82.552C346.001 83.4053 343.313 83.832 340.369 83.832C339.814 83.832 339.195 83.832 338.513 83.832C337.873 83.7893 337.339 83.7467 336.913 83.704C336.87 84.3867 336.827 85.0693 336.785 85.752C336.742 86.392 336.72 86.9893 336.72 87.544C336.72 89.848 337.147 91.6613 338.001 92.984C338.854 94.264 340.411 94.904 342.673 94.904C344.507 94.904 346.15 94.4773 347.601 93.624C349.051 92.728 350.182 91.4693 350.993 89.848C351.59 90.0187 351.995 90.36 352.209 90.872C352.422 91.384 352.529 91.9173 352.529 92.472C352.529 93.752 352.081 94.9893 351.185 96.184C350.289 97.3787 348.987 98.36 347.281 99.128C345.574 99.896 343.505 100.28 341.073 100.28ZM337.361 80.568C338.811 80.568 340.241 80.4187 341.649 80.12C343.099 79.8213 344.422 79.352 345.617 78.712C346.811 78.0293 347.75 77.176 348.433 76.152C349.158 75.0853 349.521 73.848 349.521 72.44C349.521 71.2027 349.222 70.2853 348.625 69.688C348.07 69.048 347.259 68.728 346.193 68.728C344.998 68.728 343.889 69.112 342.865 69.88C341.883 70.6053 341.03 71.5653 340.305 72.76C339.579 73.9547 338.961 75.2347 338.449 76.6C337.979 77.9653 337.617 79.288 337.361 80.568ZM367.635 100.408C366.269 100.408 364.925 100.259 363.603 99.96C362.323 99.704 361.149 99.2987 360.083 98.744C359.016 98.1893 358.163 97.4853 357.523 96.632C356.925 95.7787 356.627 94.7973 356.627 93.688C356.627 92.4507 356.947 91.4907 357.587 90.808C358.227 90.1253 358.973 89.6347 359.827 89.336C360.723 88.9947 361.576 88.824 362.387 88.824C362.856 88.824 363.325 88.888 363.795 89.016C364.264 89.1013 364.648 89.3147 364.947 89.656C364.733 90.2533 364.541 90.8293 364.371 91.384C364.2 91.896 364.115 92.4933 364.115 93.176C364.157 94.2427 364.584 95.1173 365.395 95.8C366.205 96.44 367.315 96.76 368.723 96.76C370.259 96.76 371.539 96.3547 372.562 95.544C373.629 94.6907 374.163 93.6027 374.163 92.28C374.163 91.1707 373.864 90.1893 373.267 89.336C372.669 88.44 371.88 87.6293 370.899 86.904C369.96 86.136 368.979 85.3893 367.955 84.664C366.803 83.8533 365.672 83 364.562 82.104C363.453 81.1653 362.536 80.12 361.811 78.968C361.128 77.7733 360.786 76.3653 360.786 74.744C360.786 73.1653 361.192 71.7787 362.003 70.584C362.813 69.3467 363.88 68.3227 365.203 67.512C366.525 66.7013 367.997 66.104 369.619 65.72C371.283 65.2933 372.925 65.08 374.547 65.08C376.04 65.08 377.512 65.272 378.963 65.656C380.456 66.04 381.693 66.7013 382.675 67.64C383.656 68.536 384.125 69.7733 384.083 71.352C384.083 73.016 383.549 74.296 382.483 75.192C381.459 76.088 380.328 76.536 379.091 76.536C378.621 76.536 378.109 76.4933 377.555 76.408C377 76.28 376.509 76.0453 376.083 75.704C376.381 75.1493 376.595 74.5733 376.723 73.976C376.893 73.3787 376.979 72.7813 376.979 72.184C376.979 71.0747 376.595 70.2213 375.827 69.624C375.101 68.984 374.056 68.664 372.691 68.664C371.325 68.664 370.152 69.048 369.171 69.816C368.232 70.5413 367.763 71.5653 367.763 72.888C367.763 73.8267 367.997 74.68 368.467 75.448C368.936 76.216 369.555 76.9413 370.323 77.624C371.091 78.3067 371.923 78.968 372.819 79.608C374.141 80.504 375.443 81.4427 376.723 82.424C378.045 83.3627 379.133 84.4507 379.987 85.688C380.883 86.9253 381.309 88.44 381.267 90.232C381.267 92.3227 380.605 94.136 379.283 95.672C378.003 97.1653 376.317 98.3173 374.227 99.128C372.136 99.9813 369.939 100.408 367.635 100.408ZM385.325 99.768L390.957 71.16L396.973 71.608C398.082 69.3467 399.618 67.704 401.581 66.68C403.543 65.6133 405.57 65.08 407.661 65.08C410.263 65.08 412.162 65.7627 413.357 67.128C414.594 68.4933 415.213 70.2853 415.213 72.504C415.213 74.8507 414.637 76.8347 413.485 78.456C412.333 80.0773 410.861 81.4 409.069 82.424C407.319 83.4053 405.527 84.216 403.693 84.856L397.421 83.576C399.127 83.1493 400.791 82.5307 402.413 81.72C404.034 80.9093 405.378 79.864 406.445 78.584C407.511 77.304 408.045 75.7893 408.045 74.04C408.045 71.352 406.743 70.008 404.141 70.008C402.477 70.008 401.111 70.5627 400.045 71.672C398.978 72.7387 398.146 74.1467 397.549 75.896C396.951 77.6027 396.461 79.3733 396.077 81.208L392.621 99L385.325 99.768ZM407.853 100.28C406.871 100.28 405.975 100.067 405.165 99.64C404.354 99.2133 403.607 98.552 402.925 97.656C402.242 96.76 401.602 95.6507 401.005 94.328C400.407 93.0053 399.81 91.448 399.213 89.656C398.658 87.864 398.061 85.8373 397.421 83.576H404.269L407.533 92.152C408.002 93.2187 408.621 94.2213 409.389 95.16C410.157 96.0987 411.138 96.632 412.333 96.76C412.205 97.784 411.757 98.616 410.989 99.256C410.221 99.9387 409.175 100.28 407.853 100.28ZM396.973 72.376L390.829 71.736C391.17 69.944 391.511 67.9813 391.853 65.848C392.237 63.672 392.557 61.5387 392.812 59.448C393.111 57.3573 393.26 55.5653 393.26 54.072C393.26 53.56 393.239 53.112 393.197 52.728C393.197 52.344 393.175 51.9813 393.133 51.64C393.559 51.3413 394.05 51.128 394.605 51C395.202 50.8293 395.821 50.744 396.461 50.744C397.57 50.744 398.594 51.0853 399.533 51.768C400.514 52.408 400.983 53.5813 400.941 55.288C400.941 55.8 400.834 56.6107 400.621 57.72C400.45 58.7867 400.194 60.0027 399.853 61.368C399.554 62.7333 399.234 64.1413 398.893 65.592C398.551 67 398.21 68.3227 397.869 69.56C397.527 70.7547 397.229 71.6933 396.973 72.376Z" fill="#294255"/>
<g filter="url(#filter0_d_103_17)">
<path d="M4 83.4472C4 72.6223 12.7753 63.8469 23.6002 63.8469V109.796C12.7753 109.796 4 101.021 4 90.1957V83.4472Z" fill="#294255"/>
<path d="M9 83.4472C9 77.14 12.9993 71.767 18.6002 69.7256V103.917C12.9993 101.876 9 96.5028 9 90.1957V83.4472Z" stroke="#294255" stroke-width="9.80011"/>
</g>
<g filter="url(#filter1_d_103_17)">
<path d="M144.217 90.1957C144.217 101.021 135.442 109.796 124.617 109.796V63.8469C135.442 63.8469 144.217 72.6223 144.217 83.4472V90.1957Z" fill="#294255"/>
<path d="M139.217 90.1957C139.217 96.5028 135.218 101.876 129.617 103.917V69.7256C135.218 71.767 139.217 77.14 139.217 83.4472V90.1957Z" stroke="#294255" stroke-width="9.80011"/>
</g>
<path d="M16.0616 66.2653C16.0616 -15.088 132.155 -15.7548 132.155 66.2653" stroke="#294255" stroke-width="10"/>
<g filter="url(#filter2_d_103_17)">
<path d="M56.7698 151.311C56.7698 144.856 62.003 139.622 68.4586 139.622H79.7583C86.2139 139.622 91.4471 144.856 91.4471 151.311C91.4471 157.767 86.2139 163 79.7583 163H68.4586C62.003 163 56.7698 157.767 56.7698 151.311Z" fill="#294255"/>
<path d="M64.2698 151.311C64.2698 148.998 66.1452 147.122 68.4586 147.122H79.7583C82.0717 147.122 83.9471 148.998 83.9471 151.311C83.9471 153.625 82.0717 155.5 79.7583 155.5H68.4586C66.1452 155.5 64.2698 153.625 64.2698 151.311Z" stroke="#294255" stroke-width="11.6888"/>
</g>
<path d="M90.6934 151.308C128.806 155.669 135.617 123.838 134.259 107.378" stroke="#294255" stroke-width="10"/>
<path d="M37.9235 108.99C67.5729 132.349 97.0164 118.723 108.032 108.99" stroke="#294255" stroke-width="10"/>
<defs>
<filter id="filter0_d_103_17" x="0" y="63.8469" width="27.6002" height="53.949" filterUnits="userSpaceOnUse" color-interpolation-filters="sRGB">
<feFlood flood-opacity="0" result="BackgroundImageFix"/>
<feColorMatrix in="SourceAlpha" type="matrix" values="0 0 0 0 0 0 0 0 0 0 0 0 0 0 0 0 0 0 127 0" result="hardAlpha"/>
<feOffset dy="4"/>
<feGaussianBlur stdDeviation="2"/>
<feComposite in2="hardAlpha" operator="out"/>
<feColorMatrix type="matrix" values="0 0 0 0 0 0 0 0 0 0 0 0 0 0 0 0 0 0 0.25 0"/>
<feBlend mode="normal" in2="BackgroundImageFix" result="effect1_dropShadow_103_17"/>
<feBlend mode="normal" in="SourceGraphic" in2="effect1_dropShadow_103_17" result="shape"/>
</filter>
<filter id="filter1_d_103_17" x="120.617" y="63.8469" width="27.6002" height="53.949" filterUnits="userSpaceOnUse" color-interpolation-filters="sRGB">
<feFlood flood-opacity="0" result="BackgroundImageFix"/>
<feColorMatrix in="SourceAlpha" type="matrix" values="0 0 0 0 0 0 0 0 0 0 0 0 0 0 0 0 0 0 127 0" result="hardAlpha"/>
<feOffset dy="4"/>
<feGaussianBlur stdDeviation="2"/>
<feComposite in2="hardAlpha" operator="out"/>
<feColorMatrix type="matrix" values="0 0 0 0 0 0 0 0 0 0 0 0 0 0 0 0 0 0 0.25 0"/>
<feBlend mode="normal" in2="BackgroundImageFix" result="effect1_dropShadow_103_17"/>
<feBlend mode="normal" in="SourceGraphic" in2="effect1_dropShadow_103_17" result="shape"/>
</filter>
<filter id="filter2_d_103_17" x="52.7698" y="139.622" width="42.6773" height="31.3775" filterUnits="userSpaceOnUse" color-interpolation-filters="sRGB">
<feFlood flood-opacity="0" result="BackgroundImageFix"/>
<feColorMatrix in="SourceAlpha" type="matrix" values="0 0 0 0 0 0 0 0 0 0 0 0 0 0 0 0 0 0 127 0" result="hardAlpha"/>
<feOffset dy="4"/>
<feGaussianBlur stdDeviation="2"/>
<feComposite in2="hardAlpha" operator="out"/>
<feColorMatrix type="matrix" values="0 0 0 0 0 0 0 0 0 0 0 0 0 0 0 0 0 0 0.25 0"/>
<feBlend mode="normal" in2="BackgroundImageFix" result="effect1_dropShadow_103_17"/>
<feBlend mode="normal" in="SourceGraphic" in2="effect1_dropShadow_103_17" result="shape"/>
</filter>
</defs>
</svg>
