<svg width="440" height="171" viewBox="0 0 440 171" fill="none" xmlns="http://www.w3.org/2000/svg">
<g filter="url(#filter0_d_103_17)">
<path d="M200.712 99.448L208.2 59.192C208.499 57.7413 208.904 56.568 209.416 55.672C209.971 54.7333 210.675 54.0507 211.528 53.624C212.424 53.1547 213.491 52.92 214.728 52.92C215.539 52.92 216.285 53.048 216.968 53.304C217.693 53.56 218.163 53.9867 218.376 54.584C217.821 55.0533 217.331 55.6293 216.904 56.312C216.52 56.9947 216.179 57.848 215.88 58.872C215.624 59.8533 215.347 61.048 215.048 62.456L208.264 98.552L200.712 99.448ZM180.744 102.136C179.933 102.136 179.165 101.987 178.44 101.688C177.715 101.389 177.245 100.984 177.032 100.472C177.544 100.131 177.992 99.704 178.376 99.192C178.76 98.68 179.08 98.04 179.336 97.272C179.635 96.4613 179.891 95.48 180.104 94.328L185.416 65.976C185.8 63.9707 186.376 62.3067 187.144 60.984C187.912 59.6613 188.936 58.6587 190.216 57.976C191.496 57.2507 193.053 56.8453 194.888 56.76L187.272 95.736C186.973 97.2293 186.547 98.4453 185.992 99.384C185.48 100.365 184.797 101.069 183.944 101.496C183.091 101.923 182.024 102.136 180.744 102.136ZM175.24 74.04C173.96 74.04 172.851 73.7413 171.912 73.144C171.016 72.504 170.312 71.6293 169.8 70.52C169.288 69.4107 169.032 68.1093 169.032 66.616C169.032 64.568 169.523 62.584 170.504 60.664C171.528 58.7013 173.064 57.1013 175.112 55.864C177.16 54.6267 179.763 54.008 182.92 54.008C184.243 54.008 185.437 54.136 186.504 54.392C187.613 54.6053 188.637 54.904 189.576 55.288C190.557 55.6293 191.475 55.9493 192.328 56.248C193.181 56.504 194.013 56.6747 194.824 56.76L189.128 58.744L189 58.552C188.744 58.3813 188.296 58.1467 187.656 57.848C187.016 57.5493 185.949 57.4 184.456 57.4C181.896 57.4 179.891 58.1893 178.44 59.768C177.032 61.3467 176.328 63.544 176.328 66.36C176.328 67.5547 176.477 68.728 176.776 69.88C177.075 71.032 177.523 72.1627 178.12 73.272C177.693 73.528 177.224 73.72 176.712 73.848C176.243 73.976 175.752 74.04 175.24 74.04ZM188.168 80.44L188.936 75.96H207.624L206.792 80.44H188.168ZM229.26 100.28C226.828 100.28 224.716 99.832 222.924 98.936C221.175 97.9973 219.831 96.5893 218.892 94.712C217.953 92.8347 217.484 90.4667 217.484 87.608C217.484 84.92 217.847 82.2533 218.572 79.608C219.34 76.92 220.471 74.488 221.964 72.312C223.457 70.136 225.356 68.3867 227.66 67.064C230.007 65.7413 232.759 65.08 235.916 65.08C237.58 65.08 239.073 65.3147 240.396 65.784C241.719 66.2533 242.764 67.0213 243.532 68.088C244.3 69.1547 244.684 70.6053 244.684 72.44C244.684 74.9147 243.937 77.0053 242.444 78.712C240.993 80.376 239.052 81.656 236.62 82.552C234.188 83.4053 231.5 83.832 228.556 83.832C228.001 83.832 227.383 83.832 226.7 83.832C226.06 83.7893 225.527 83.7467 225.1 83.704C225.057 84.3867 225.015 85.0693 224.972 85.752C224.929 86.392 224.908 86.9893 224.908 87.544C224.908 89.848 225.335 91.6613 226.188 92.984C227.041 94.264 228.599 94.904 230.86 94.904C232.695 94.904 234.337 94.4773 235.788 93.624C237.239 92.728 238.369 91.4693 239.18 89.848C239.777 90.0187 240.183 90.36 240.396 90.872C240.609 91.384 240.716 91.9173 240.716 92.472C240.716 93.752 240.268 94.9893 239.372 96.184C238.476 97.3787 237.175 98.36 235.468 99.128C233.761 99.896 231.692 100.28 229.26 100.28ZM225.548 80.568C226.999 80.568 228.428 80.4187 229.836 80.12C231.287 79.8213 232.609 79.352 233.804 78.712C234.999 78.0293 235.937 77.176 236.62 76.152C237.345 75.0853 237.708 73.848 237.708 72.44C237.708 71.2027 237.409 70.2853 236.812 69.688C236.257 69.048 235.447 68.728 234.38 68.728C233.185 68.728 232.076 69.112 231.052 69.88C230.071 70.6053 229.217 71.5653 228.492 72.76C227.767 73.9547 227.148 75.2347 226.636 76.6C226.167 77.9653 225.804 79.288 225.548 80.568ZM250.958 100.28C249.593 100.28 248.505 99.896 247.694 99.128C246.926 98.36 246.542 97.2933 246.542 95.928C246.542 95.4587 246.585 94.904 246.67 94.264C246.755 93.624 246.862 92.8347 246.99 91.896C247.161 90.9573 247.395 89.784 247.694 88.376C247.993 86.968 248.334 85.2827 248.718 83.32C249.102 81.3573 249.571 79.032 250.126 76.344C250.681 73.656 251.321 70.584 252.046 67.128C252.473 64.696 252.835 62.328 253.134 60.024C253.433 57.6773 253.582 55.7147 253.582 54.136C253.582 53.624 253.561 53.176 253.518 52.792C253.475 52.3653 253.411 51.9813 253.326 51.64C253.753 51.384 254.265 51.1707 254.862 51C255.459 50.8293 256.078 50.744 256.718 50.744C257.827 50.744 258.851 51.0853 259.79 51.768C260.771 52.408 261.262 53.56 261.262 55.224C261.262 55.5653 261.177 56.248 261.006 57.272C260.835 58.296 260.622 59.4907 260.366 60.856C260.11 62.1787 259.833 63.5653 259.534 65.016C259.278 66.424 259.043 67.704 258.83 68.856C257.806 73.8053 256.974 77.8587 256.334 81.016C255.694 84.1307 255.182 86.584 254.798 88.376C254.457 90.168 254.201 91.4907 254.03 92.344C253.902 93.1973 253.817 93.7947 253.774 94.136C253.731 94.4773 253.71 94.776 253.71 95.032C253.71 95.672 253.859 96.184 254.158 96.568C254.499 96.952 254.99 97.1653 255.63 97.208C255.502 97.9333 255.182 98.5307 254.67 99C254.201 99.4267 253.646 99.7467 253.006 99.96C252.366 100.173 251.683 100.28 250.958 100.28ZM274.647 100.28C273.452 100.28 272.471 100.152 271.703 99.896C270.978 99.64 269.975 99.32 268.695 98.936L262.423 98.424L268.567 66.36L274.711 65.592L273.943 71.352C275.095 69.4747 276.524 67.96 278.231 66.808C279.98 65.656 281.986 65.08 284.247 65.08C286.295 65.08 287.959 65.6133 289.239 66.68C290.519 67.704 291.458 69.1333 292.055 70.968C292.652 72.76 292.951 74.8293 292.951 77.176C292.951 79.992 292.567 82.7653 291.799 85.496C291.074 88.2267 289.964 90.7013 288.471 92.92C286.978 95.1387 285.079 96.9307 282.775 98.296C280.471 99.6187 277.762 100.28 274.647 100.28ZM265.367 111.8C264.258 111.8 263.234 111.459 262.295 110.776C261.399 110.093 260.951 108.877 260.951 107.128C260.951 106.787 261.015 106.189 261.143 105.336C261.271 104.525 261.42 103.565 261.591 102.456C261.804 101.389 262.018 100.259 262.231 99.064C262.487 97.8693 262.722 96.7813 262.935 95.8L269.975 95.928C269.591 98.0187 269.25 100.195 268.951 102.456C268.652 104.76 268.503 106.744 268.503 108.408C268.503 108.835 268.524 109.261 268.567 109.688C268.61 110.115 268.674 110.499 268.759 110.84C268.332 111.096 267.82 111.309 267.223 111.48C266.626 111.693 266.007 111.8 265.367 111.8ZM275.735 96.44C277.015 96.44 278.167 96.056 279.191 95.288C280.258 94.52 281.175 93.4747 281.943 92.152C282.754 90.8293 283.415 89.2933 283.927 87.544C284.439 85.7947 284.823 83.9387 285.079 81.976C285.378 79.9707 285.527 77.9653 285.527 75.96C285.527 74.168 285.228 72.7387 284.631 71.672C284.034 70.5627 282.967 70.008 281.431 70.008C279.895 70.008 278.572 70.456 277.463 71.352C276.396 72.248 275.522 73.4 274.839 74.808C274.156 76.216 273.666 77.688 273.367 79.224L270.551 94.456C271.319 95.1387 272.151 95.6507 273.047 95.992C273.986 96.2907 274.882 96.44 275.735 96.44ZM306.011 100.28C303.835 100.28 302.064 99.768 300.699 98.744C299.376 97.6773 298.395 96.248 297.755 94.456C297.158 92.6213 296.859 90.5307 296.859 88.184C296.859 85.0267 297.286 82.0613 298.139 79.288C299.035 76.472 300.251 73.9973 301.787 71.864C303.366 69.7307 305.243 68.0667 307.419 66.872C309.595 65.6773 311.942 65.08 314.459 65.08C315.739 65.08 316.891 65.208 317.915 65.464C318.982 65.6773 320.112 66.0187 321.307 66.488L327.259 67.384C326.491 71.48 325.702 75.6187 324.891 79.8C324.123 83.9387 323.291 88.12 322.395 92.344C322.352 92.728 322.288 93.176 322.203 93.688C322.118 94.2 322.075 94.648 322.075 95.032C322.075 95.672 322.224 96.184 322.523 96.568C322.864 96.952 323.376 97.1653 324.059 97.208C323.846 97.9333 323.483 98.5307 322.971 99C322.502 99.4267 321.947 99.7467 321.307 99.96C320.71 100.173 320.027 100.28 319.259 100.28C318.107 100.28 317.126 99.96 316.315 99.32C315.504 98.7227 315.035 97.8267 314.907 96.632C313.798 97.6987 312.475 98.5733 310.939 99.256C309.446 99.9387 307.803 100.28 306.011 100.28ZM308.827 96.44C310.448 96.44 311.75 95.9067 312.731 94.84C313.755 93.7733 314.566 92.4507 315.163 90.872C315.76 89.2507 316.208 87.6933 316.507 86.2L319.323 70.904C318.47 70.2213 317.574 69.7307 316.635 69.432C315.739 69.0907 314.907 68.92 314.139 68.92C312.816 68.92 311.622 69.304 310.555 70.072C309.531 70.84 308.614 71.8853 307.803 73.208C307.035 74.5307 306.374 76.0667 305.819 77.816C305.307 79.5653 304.923 81.4427 304.667 83.448C304.411 85.4107 304.283 87.3947 304.283 89.4C304.283 91.3627 304.603 93.0267 305.243 94.392C305.883 95.7573 307.078 96.44 308.827 96.44ZM327.131 68.024L320.091 67.512C320.518 65.1653 320.88 62.7973 321.179 60.408C321.52 58.0187 321.712 55.9707 321.755 54.264C321.755 53.752 321.734 53.2827 321.691 52.856C321.691 52.4293 321.648 52.024 321.563 51.64C321.947 51.384 322.438 51.1707 323.035 51C323.632 50.8293 324.272 50.744 324.955 50.744C326.064 50.744 327.088 51.0853 328.027 51.768C328.966 52.408 329.435 53.5813 329.435 55.288C329.435 55.7573 329.307 56.6747 329.051 58.04C328.838 59.4053 328.56 60.984 328.219 62.776C327.878 64.568 327.515 66.3173 327.131 68.024ZM343.073 100.28C340.641 100.28 338.529 99.832 336.737 98.936C334.987 97.9973 333.643 96.5893 332.705 94.712C331.766 92.8347 331.297 90.4667 331.297 87.608C331.297 84.92 331.659 82.2533 332.385 79.608C333.152 76.92 334.283 74.488 335.777 72.312C337.27 70.136 339.169 68.3867 341.473 67.064C343.819 65.7413 346.571 65.08 349.729 65.08C351.393 65.08 352.886 65.3147 354.209 65.784C355.531 66.2533 356.577 67.0213 357.345 68.088C358.113 69.1547 358.497 70.6053 358.497 72.44C358.497 74.9147 357.75 77.0053 356.257 78.712C354.806 80.376 352.865 81.656 350.433 82.552C348.001 83.4053 345.313 83.832 342.369 83.832C341.814 83.832 341.195 83.832 340.513 83.832C339.873 83.7893 339.339 83.7467 338.913 83.704C338.87 84.3867 338.827 85.0693 338.785 85.752C338.742 86.392 338.72 86.9893 338.72 87.544C338.72 89.848 339.147 91.6613 340.001 92.984C340.854 94.264 342.411 94.904 344.673 94.904C346.507 94.904 348.15 94.4773 349.601 93.624C351.051 92.728 352.182 91.4693 352.993 89.848C353.59 90.0187 353.995 90.36 354.209 90.872C354.422 91.384 354.529 91.9173 354.529 92.472C354.529 93.752 354.081 94.9893 353.185 96.184C352.289 97.3787 350.987 98.36 349.281 99.128C347.574 99.896 345.505 100.28 343.073 100.28ZM339.361 80.568C340.811 80.568 342.241 80.4187 343.649 80.12C345.099 79.8213 346.422 79.352 347.617 78.712C348.811 78.0293 349.75 77.176 350.433 76.152C351.158 75.0853 351.521 73.848 351.521 72.44C351.521 71.2027 351.222 70.2853 350.625 69.688C350.07 69.048 349.259 68.728 348.193 68.728C346.998 68.728 345.889 69.112 344.865 69.88C343.883 70.6053 343.03 71.5653 342.305 72.76C341.579 73.9547 340.961 75.2347 340.449 76.6C339.979 77.9653 339.617 79.288 339.361 80.568ZM369.635 100.408C368.269 100.408 366.925 100.259 365.603 99.96C364.323 99.704 363.149 99.2987 362.083 98.744C361.016 98.1893 360.163 97.4853 359.523 96.632C358.925 95.7787 358.627 94.7973 358.627 93.688C358.627 92.4507 358.947 91.4907 359.587 90.808C360.227 90.1253 360.973 89.6347 361.827 89.336C362.723 88.9947 363.576 88.824 364.387 88.824C364.856 88.824 365.325 88.888 365.795 89.016C366.264 89.1013 366.648 89.3147 366.947 89.656C366.733 90.2533 366.541 90.8293 366.371 91.384C366.2 91.896 366.115 92.4933 366.115 93.176C366.157 94.2427 366.584 95.1173 367.395 95.8C368.205 96.44 369.315 96.76 370.723 96.76C372.259 96.76 373.539 96.3547 374.562 95.544C375.629 94.6907 376.163 93.6027 376.163 92.28C376.163 91.1707 375.864 90.1893 375.267 89.336C374.669 88.44 373.88 87.6293 372.899 86.904C371.96 86.136 370.979 85.3893 369.955 84.664C368.803 83.8533 367.672 83 366.562 82.104C365.453 81.1653 364.536 80.12 363.811 78.968C363.128 77.7733 362.786 76.3653 362.786 74.744C362.786 73.1653 363.192 71.7787 364.003 70.584C364.813 69.3467 365.88 68.3227 367.203 67.512C368.525 66.7013 369.997 66.104 371.619 65.72C373.283 65.2933 374.925 65.08 376.547 65.08C378.04 65.08 379.512 65.272 380.963 65.656C382.456 66.04 383.693 66.7013 384.675 67.64C385.656 68.536 386.125 69.7733 386.083 71.352C386.083 73.016 385.549 74.296 384.483 75.192C383.459 76.088 382.328 76.536 381.091 76.536C380.621 76.536 380.109 76.4933 379.555 76.408C379 76.28 378.509 76.0453 378.083 75.704C378.381 75.1493 378.595 74.5733 378.723 73.976C378.893 73.3787 378.979 72.7813 378.979 72.184C378.979 71.0747 378.595 70.2213 377.827 69.624C377.101 68.984 376.056 68.664 374.691 68.664C373.325 68.664 372.152 69.048 371.171 69.816C370.232 70.5413 369.763 71.5653 369.763 72.888C369.763 73.8267 369.997 74.68 370.467 75.448C370.936 76.216 371.555 76.9413 372.323 77.624C373.091 78.3067 373.923 78.968 374.819 79.608C376.141 80.504 377.443 81.4427 378.723 82.424C380.045 83.3627 381.133 84.4507 381.987 85.688C382.883 86.9253 383.309 88.44 383.267 90.232C383.267 92.3227 382.605 94.136 381.283 95.672C380.003 97.1653 378.317 98.3173 376.227 99.128C374.136 99.9813 371.939 100.408 369.635 100.408ZM387.325 99.768L392.957 71.16L398.973 71.608C400.082 69.3467 401.618 67.704 403.581 66.68C405.543 65.6133 407.57 65.08 409.661 65.08C412.263 65.08 414.162 65.7627 415.357 67.128C416.594 68.4933 417.213 70.2853 417.213 72.504C417.213 74.8507 416.637 76.8347 415.485 78.456C414.333 80.0773 412.861 81.4 411.069 82.424C409.319 83.4053 407.527 84.216 405.693 84.856L399.421 83.576C401.127 83.1493 402.791 82.5307 404.413 81.72C406.034 80.9093 407.378 79.864 408.445 78.584C409.511 77.304 410.045 75.7893 410.045 74.04C410.045 71.352 408.743 70.008 406.141 70.008C404.477 70.008 403.111 70.5627 402.045 71.672C400.978 72.7387 400.146 74.1467 399.549 75.896C398.951 77.6027 398.461 79.3733 398.077 81.208L394.621 99L387.325 99.768ZM409.853 100.28C408.871 100.28 407.975 100.067 407.165 99.64C406.354 99.2133 405.607 98.552 404.925 97.656C404.242 96.76 403.602 95.6507 403.005 94.328C402.407 93.0053 401.81 91.448 401.213 89.656C400.658 87.864 400.061 85.8373 399.421 83.576H406.269L409.533 92.152C410.002 93.2187 410.621 94.2213 411.389 95.16C412.157 96.0987 413.138 96.632 414.333 96.76C414.205 97.784 413.757 98.616 412.989 99.256C412.221 99.9387 411.175 100.28 409.853 100.28ZM398.973 72.376L392.829 71.736C393.17 69.944 393.511 67.9813 393.853 65.848C394.237 63.672 394.557 61.5387 394.812 59.448C395.111 57.3573 395.26 55.5653 395.26 54.072C395.26 53.56 395.239 53.112 395.197 52.728C395.197 52.344 395.175 51.9813 395.133 51.64C395.559 51.3413 396.05 51.128 396.605 51C397.202 50.8293 397.821 50.744 398.461 50.744C399.57 50.744 400.594 51.0853 401.533 51.768C402.514 52.408 402.983 53.5813 402.941 55.288C402.941 55.8 402.834 56.6107 402.621 57.72C402.45 58.7867 402.194 60.0027 401.853 61.368C401.554 62.7333 401.234 64.1413 400.893 65.592C400.551 67 400.21 68.3227 399.869 69.56C399.527 70.7547 399.229 71.6933 398.973 72.376Z" fill="white"/>
<g filter="url(#filter1_d_103_17)">
<path d="M4 83.4472C4 72.6223 12.7753 63.8469 23.6002 63.8469V63.8469V109.796V109.796C12.7753 109.796 4 101.021 4 90.1957V83.4472Z" fill="white"/>
<path d="M18.6002 103.917C12.9993 101.876 9 96.5028 9 90.1957V83.4472C9 77.14 12.9993 71.767 18.6002 69.7256V103.917Z" stroke="white" stroke-width="9.80011"/>
</g>
<g filter="url(#filter2_d_103_17)">
<path d="M144.217 90.1957C144.217 101.021 135.442 109.796 124.617 109.796V109.796V63.8469V63.8469C135.442 63.8469 144.217 72.6223 144.217 83.4472V90.1957Z" fill="white"/>
<path d="M129.617 69.7256C135.218 71.767 139.217 77.14 139.217 83.4472V90.1957C139.217 96.5028 135.218 101.876 129.617 103.917V69.7256Z" stroke="white" stroke-width="9.80011"/>
</g>
<path d="M16.0616 66.2653C16.0616 -15.088 132.155 -15.7548 132.155 66.2653" stroke="white" stroke-width="10"/>
<g filter="url(#filter3_d_103_17)">
<path d="M56.7698 151.311C56.7698 144.856 62.003 139.622 68.4586 139.622H79.7583C86.2139 139.622 91.4471 144.856 91.4471 151.311V151.311C91.4471 157.767 86.2139 163 79.7583 163H68.4586C62.003 163 56.7698 157.767 56.7698 151.311V151.311Z" fill="white"/>
<path d="M68.4586 147.122H79.7583C82.0717 147.122 83.9471 148.998 83.9471 151.311C83.9471 153.625 82.0717 155.5 79.7583 155.5H68.4586C66.1452 155.5 64.2698 153.625 64.2698 151.311C64.2698 148.998 66.1452 147.122 68.4586 147.122Z" stroke="white" stroke-width="11.6888"/>
</g>
<path d="M90.6934 151.308C128.806 155.669 135.617 123.838 134.259 107.378" stroke="white" stroke-width="10"/>
<path d="M37.9235 108.99C67.5729 132.349 97.0164 118.723 108.032 108.99" stroke="white" stroke-width="10"/>
</g>
<defs>
<filter id="filter0_d_103_17" x="0" y="1.90735e-06" width="421.213" height="171" filterUnits="userSpaceOnUse" color-interpolation-filters="sRGB">
<feFlood flood-opacity="0" result="BackgroundImageFix"/>
<feColorMatrix in="SourceAlpha" type="matrix" values="0 0 0 0 0 0 0 0 0 0 0 0 0 0 0 0 0 0 127 0" result="hardAlpha"/>
<feOffset dy="4"/>
<feGaussianBlur stdDeviation="2"/>
<feComposite in2="hardAlpha" operator="out"/>
<feColorMatrix type="matrix" values="0 0 0 0 0 0 0 0 0 0 0 0 0 0 0 0 0 0 0.25 0"/>
<feBlend mode="normal" in2="BackgroundImageFix" result="effect1_dropShadow_103_17"/>
<feBlend mode="normal" in="SourceGraphic" in2="effect1_dropShadow_103_17" result="shape"/>
</filter>
<filter id="filter1_d_103_17" x="0" y="63.8469" width="27.6002" height="53.949" filterUnits="userSpaceOnUse" color-interpolation-filters="sRGB">
<feFlood flood-opacity="0" result="BackgroundImageFix"/>
<feColorMatrix in="SourceAlpha" type="matrix" values="0 0 0 0 0 0 0 0 0 0 0 0 0 0 0 0 0 0 127 0" result="hardAlpha"/>
<feOffset dy="4"/>
<feGaussianBlur stdDeviation="2"/>
<feComposite in2="hardAlpha" operator="out"/>
<feColorMatrix type="matrix" values="0 0 0 0 0 0 0 0 0 0 0 0 0 0 0 0 0 0 0.25 0"/>
<feBlend mode="normal" in2="BackgroundImageFix" result="effect1_dropShadow_103_17"/>
<feBlend mode="normal" in="SourceGraphic" in2="effect1_dropShadow_103_17" result="shape"/>
</filter>
<filter id="filter2_d_103_17" x="120.617" y="63.8469" width="27.6002" height="53.949" filterUnits="userSpaceOnUse" color-interpolation-filters="sRGB">
<feFlood flood-opacity="0" result="BackgroundImageFix"/>
<feColorMatrix in="SourceAlpha" type="matrix" values="0 0 0 0 0 0 0 0 0 0 0 0 0 0 0 0 0 0 127 0" result="hardAlpha"/>
<feOffset dy="4"/>
<feGaussianBlur stdDeviation="2"/>
<feComposite in2="hardAlpha" operator="out"/>
<feColorMatrix type="matrix" values="0 0 0 0 0 0 0 0 0 0 0 0 0 0 0 0 0 0 0.25 0"/>
<feBlend mode="normal" in2="BackgroundImageFix" result="effect1_dropShadow_103_17"/>
<feBlend mode="normal" in="SourceGraphic" in2="effect1_dropShadow_103_17" result="shape"/>
</filter>
<filter id="filter3_d_103_17" x="52.7698" y="139.622" width="42.6773" height="31.3775" filterUnits="userSpaceOnUse" color-interpolation-filters="sRGB">
<feFlood flood-opacity="0" result="BackgroundImageFix"/>
<feColorMatrix in="SourceAlpha" type="matrix" values="0 0 0 0 0 0 0 0 0 0 0 0 0 0 0 0 0 0 127 0" result="hardAlpha"/>
<feOffset dy="4"/>
<feGaussianBlur stdDeviation="2"/>
<feComposite in2="hardAlpha" operator="out"/>
<feColorMatrix type="matrix" values="0 0 0 0 0 0 0 0 0 0 0 0 0 0 0 0 0 0 0.25 0"/>
<feBlend mode="normal" in2="BackgroundImageFix" result="effect1_dropShadow_103_17"/>
<feBlend mode="normal" in="SourceGraphic" in2="effect1_dropShadow_103_17" result="shape"/>
</filter>
</defs>
</svg>
