<svg width="600" height="600" viewBox="0 0 600 600" fill="none" xmlns="http://www.w3.org/2000/svg">
<circle cx="300" cy="300" r="300" fill="white"/>
<g filter="url(#filter0_d_203_2)">
<path d="M75 249C75 235.193 86.1929 224 100 224H138V368H100C86.1929 368 75 356.807 75 343V249Z" fill="white"/>
<path d="M80 249C80 237.954 88.9543 229 100 229H133V363H100C88.9543 363 80 354.046 80 343V249Z" stroke="#213748" stroke-width="10"/>
</g>
<g filter="url(#filter1_d_203_2)">
<path d="M525 343C525 356.807 513.807 368 500 368H462V224H500C513.807 224 525 235.193 525 249V343Z" fill="white"/>
<path d="M520 343C520 354.046 511.046 363 500 363H467V229H500C511.046 229 520 237.954 520 249V343Z" stroke="#213748" stroke-width="10"/>
</g>
<path d="M114 230C114 -24.954 486 -27.0438 486 230" stroke="#213748" stroke-width="10"/>
<g filter="url(#filter2_d_203_2)">
<path d="M245 488C245 474.193 256.193 463 270 463H330C343.807 463 355 474.193 355 488V511C355 524.807 343.807 536 330 536H270C256.193 536 245 524.807 245 511V488Z" fill="white"/>
<path d="M252.5 488C252.5 478.335 260.335 470.5 270 470.5H330C339.665 470.5 347.5 478.335 347.5 488V511C347.5 520.665 339.665 528.5 330 528.5H270C260.335 528.5 252.5 520.665 252.5 511V488Z" stroke="#213748" stroke-width="15"/>
</g>
<path d="M353 498C474.6 511.6 496.333 412.333 492 361" stroke="#213748" stroke-width="10"/>
<path d="M183 365C279 441.8 374.333 397 410 365" stroke="#213748" stroke-width="10"/>
<defs>
<filter id="filter0_d_203_2" x="71" y="224" width="71" height="152" filterUnits="userSpaceOnUse" color-interpolation-filters="sRGB">
<feFlood flood-opacity="0" result="BackgroundImageFix"/>
<feColorMatrix in="SourceAlpha" type="matrix" values="0 0 0 0 0 0 0 0 0 0 0 0 0 0 0 0 0 0 127 0" result="hardAlpha"/>
<feOffset dy="4"/>
<feGaussianBlur stdDeviation="2"/>
<feComposite in2="hardAlpha" operator="out"/>
<feColorMatrix type="matrix" values="0 0 0 0 0 0 0 0 0 0 0 0 0 0 0 0 0 0 0.25 0"/>
<feBlend mode="normal" in2="BackgroundImageFix" result="effect1_dropShadow_203_2"/>
<feBlend mode="normal" in="SourceGraphic" in2="effect1_dropShadow_203_2" result="shape"/>
</filter>
<filter id="filter1_d_203_2" x="458" y="224" width="71" height="152" filterUnits="userSpaceOnUse" color-interpolation-filters="sRGB">
<feFlood flood-opacity="0" result="BackgroundImageFix"/>
<feColorMatrix in="SourceAlpha" type="matrix" values="0 0 0 0 0 0 0 0 0 0 0 0 0 0 0 0 0 0 127 0" result="hardAlpha"/>
<feOffset dy="4"/>
<feGaussianBlur stdDeviation="2"/>
<feComposite in2="hardAlpha" operator="out"/>
<feColorMatrix type="matrix" values="0 0 0 0 0 0 0 0 0 0 0 0 0 0 0 0 0 0 0.25 0"/>
<feBlend mode="normal" in2="BackgroundImageFix" result="effect1_dropShadow_203_2"/>
<feBlend mode="normal" in="SourceGraphic" in2="effect1_dropShadow_203_2" result="shape"/>
</filter>
<filter id="filter2_d_203_2" x="241" y="463" width="118" height="81" filterUnits="userSpaceOnUse" color-interpolation-filters="sRGB">
<feFlood flood-opacity="0" result="BackgroundImageFix"/>
<feColorMatrix in="SourceAlpha" type="matrix" values="0 0 0 0 0 0 0 0 0 0 0 0 0 0 0 0 0 0 127 0" result="hardAlpha"/>
<feOffset dy="4"/>
<feGaussianBlur stdDeviation="2"/>
<feComposite in2="hardAlpha" operator="out"/>
<feColorMatrix type="matrix" values="0 0 0 0 0 0 0 0 0 0 0 0 0 0 0 0 0 0 0.25 0"/>
<feBlend mode="normal" in2="BackgroundImageFix" result="effect1_dropShadow_203_2"/>
<feBlend mode="normal" in="SourceGraphic" in2="effect1_dropShadow_203_2" result="shape"/>
</filter>
</defs>
</svg>
