<svg width="282" height="119" viewBox="0 0 282 119" fill="none" xmlns="http://www.w3.org/2000/svg">
<path d="M145.124 48.2971V51.0569H131.273V48.2971H145.124ZM131.8 37.2932V62.887H128.408V37.2932H131.8ZM148.077 37.2932V62.887H144.702V37.2932H148.077ZM161.507 63.2385C160.183 63.2385 158.982 63.0159 157.904 62.5705C156.837 62.1135 155.917 61.4748 155.144 60.6545C154.382 59.8342 153.796 58.8616 153.386 57.7366C152.976 56.6116 152.771 55.3811 152.771 54.0452V53.3069C152.771 51.76 152.999 50.383 153.456 49.176C153.913 47.9573 154.534 46.926 155.32 46.0823C156.105 45.2385 156.995 44.5998 157.992 44.1663C158.988 43.7327 160.019 43.5159 161.085 43.5159C162.445 43.5159 163.617 43.7502 164.601 44.219C165.597 44.6877 166.411 45.344 167.044 46.1877C167.677 47.0198 168.146 48.0041 168.451 49.1409C168.755 50.2659 168.908 51.4963 168.908 52.8323V54.2913H154.704V51.637H165.656V51.3909C165.609 50.5471 165.433 49.7268 165.128 48.9299C164.835 48.133 164.367 47.4768 163.722 46.9612C163.077 46.4455 162.199 46.1877 161.085 46.1877C160.347 46.1877 159.667 46.3459 159.046 46.6623C158.425 46.967 157.892 47.4241 157.447 48.0334C157.001 48.6428 156.656 49.387 156.409 50.2659C156.163 51.1448 156.04 52.1584 156.04 53.3069V54.0452C156.04 54.9475 156.163 55.7971 156.409 56.594C156.667 57.3791 157.036 58.0705 157.517 58.6682C158.009 59.2659 158.601 59.7346 159.292 60.0745C159.995 60.4143 160.792 60.5842 161.683 60.5842C162.831 60.5842 163.804 60.3498 164.601 59.8811C165.398 59.4123 166.095 58.7854 166.693 58.0002L168.661 59.5647C168.251 60.1858 167.73 60.7776 167.097 61.3401C166.464 61.9026 165.685 62.3596 164.759 62.7112C163.845 63.0627 162.761 63.2385 161.507 63.2385ZM176.238 35.887V62.887H172.968V35.887H176.238ZM184.71 47.5237V70.1995H181.441V43.8674H184.429L184.71 47.5237ZM197.525 53.219V53.5881C197.525 54.9709 197.361 56.2541 197.033 57.4377C196.704 58.6096 196.224 59.6291 195.591 60.4963C194.97 61.3635 194.202 62.0373 193.288 62.5178C192.374 62.9983 191.326 63.2385 190.142 63.2385C188.935 63.2385 187.868 63.0393 186.943 62.6409C186.017 62.2424 185.232 61.6623 184.587 60.9006C183.943 60.1389 183.427 59.2248 183.04 58.1584C182.665 57.092 182.408 55.8909 182.267 54.5549V52.5862C182.408 51.1799 182.671 49.9202 183.058 48.8069C183.445 47.6936 183.954 46.7444 184.587 45.9592C185.232 45.1623 186.011 44.5588 186.925 44.1487C187.839 43.7268 188.894 43.5159 190.089 43.5159C191.284 43.5159 192.345 43.7502 193.271 44.219C194.197 44.676 194.976 45.3323 195.609 46.1877C196.242 47.0432 196.716 48.0686 197.033 49.2639C197.361 50.4475 197.525 51.7659 197.525 53.219ZM194.255 53.5881V53.219C194.255 52.2698 194.156 51.3791 193.956 50.5471C193.757 49.7034 193.447 48.9651 193.025 48.3323C192.615 47.6877 192.087 47.1838 191.443 46.8205C190.798 46.4455 190.031 46.258 189.14 46.258C188.32 46.258 187.605 46.3987 186.995 46.6799C186.398 46.9612 185.888 47.342 185.466 47.8225C185.044 48.2913 184.699 48.8303 184.429 49.4397C184.171 50.0373 183.978 50.6584 183.849 51.303V55.8557C184.083 56.676 184.411 57.4495 184.833 58.176C185.255 58.8909 185.818 59.4709 186.521 59.9163C187.224 60.3498 188.109 60.5666 189.175 60.5666C190.054 60.5666 190.81 60.385 191.443 60.0217C192.087 59.6467 192.615 59.137 193.025 58.4924C193.447 57.8479 193.757 57.1096 193.956 56.2776C194.156 55.4338 194.255 54.5373 194.255 53.5881ZM213.661 59.1955V35.887H216.931V62.887H213.943L213.661 59.1955ZM200.865 53.5881V53.219C200.865 51.7659 201.04 50.4475 201.392 49.2639C201.755 48.0686 202.265 47.0432 202.921 46.1877C203.589 45.3323 204.38 44.676 205.294 44.219C206.22 43.7502 207.251 43.5159 208.388 43.5159C209.583 43.5159 210.626 43.7268 211.517 44.1487C212.419 44.5588 213.181 45.1623 213.802 45.9592C214.435 46.7444 214.933 47.6936 215.296 48.8069C215.659 49.9202 215.911 51.1799 216.052 52.5862V54.2034C215.923 55.5979 215.671 56.8518 215.296 57.9651C214.933 59.0784 214.435 60.0276 213.802 60.8127C213.181 61.5979 212.419 62.2014 211.517 62.6233C210.615 63.0334 209.56 63.2385 208.353 63.2385C207.24 63.2385 206.22 62.9983 205.294 62.5178C204.38 62.0373 203.589 61.3635 202.921 60.4963C202.265 59.6291 201.755 58.6096 201.392 57.4377C201.04 56.2541 200.865 54.9709 200.865 53.5881ZM204.134 53.219V53.5881C204.134 54.5373 204.228 55.428 204.415 56.26C204.615 57.092 204.919 57.8245 205.329 58.4573C205.74 59.0901 206.261 59.5881 206.894 59.9514C207.527 60.303 208.283 60.4788 209.161 60.4788C210.24 60.4788 211.124 60.2502 211.816 59.7932C212.519 59.3362 213.081 58.7327 213.503 57.9827C213.925 57.2327 214.253 56.4182 214.488 55.5393V51.303C214.347 50.6584 214.142 50.0373 213.872 49.4397C213.615 48.8303 213.275 48.2913 212.853 47.8225C212.443 47.342 211.933 46.9612 211.324 46.6799C210.726 46.3987 210.017 46.258 209.197 46.258C208.306 46.258 207.538 46.4455 206.894 46.8205C206.261 47.1838 205.74 47.6877 205.329 48.3323C204.919 48.9651 204.615 49.7034 204.415 50.5471C204.228 51.3791 204.134 52.2698 204.134 53.219ZM229.886 63.2385C228.562 63.2385 227.361 63.0159 226.283 62.5705C225.216 62.1135 224.296 61.4748 223.523 60.6545C222.761 59.8342 222.175 58.8616 221.765 57.7366C221.355 56.6116 221.15 55.3811 221.15 54.0452V53.3069C221.15 51.76 221.378 50.383 221.835 49.176C222.292 47.9573 222.913 46.926 223.699 46.0823C224.484 45.2385 225.374 44.5998 226.37 44.1663C227.367 43.7327 228.398 43.5159 229.464 43.5159C230.824 43.5159 231.995 43.7502 232.98 44.219C233.976 44.6877 234.79 45.344 235.423 46.1877C236.056 47.0198 236.525 48.0041 236.829 49.1409C237.134 50.2659 237.286 51.4963 237.286 52.8323V54.2913H223.083V51.637H234.034V51.3909C233.988 50.5471 233.812 49.7268 233.507 48.9299C233.214 48.133 232.745 47.4768 232.101 46.9612C231.456 46.4455 230.577 46.1877 229.464 46.1877C228.726 46.1877 228.046 46.3459 227.425 46.6623C226.804 46.967 226.271 47.4241 225.826 48.0334C225.38 48.6428 225.034 49.387 224.788 50.2659C224.542 51.1448 224.419 52.1584 224.419 53.3069V54.0452C224.419 54.9475 224.542 55.7971 224.788 56.594C225.046 57.3791 225.415 58.0705 225.896 58.6682C226.388 59.2659 226.98 59.7346 227.671 60.0745C228.374 60.4143 229.171 60.5842 230.062 60.5842C231.21 60.5842 232.183 60.3498 232.98 59.8811C233.777 59.4123 234.474 58.7854 235.072 58.0002L237.04 59.5647C236.63 60.1858 236.109 60.7776 235.476 61.3401C234.843 61.9026 234.064 62.3596 233.138 62.7112C232.224 63.0627 231.14 63.2385 229.886 63.2385ZM252.158 57.842C252.158 57.3733 252.052 56.9397 251.841 56.5413C251.642 56.1311 251.226 55.762 250.593 55.4338C249.972 55.094 249.034 54.801 247.781 54.5549C246.726 54.3323 245.771 54.0686 244.915 53.7639C244.072 53.4592 243.351 53.0901 242.753 52.6565C242.167 52.2229 241.716 51.7131 241.4 51.1272C241.083 50.5413 240.925 49.8557 240.925 49.0705C240.925 48.3205 241.089 47.6116 241.417 46.9436C241.757 46.2756 242.232 45.6838 242.841 45.1682C243.462 44.6526 244.206 44.2483 245.074 43.9553C245.941 43.6623 246.908 43.5159 247.974 43.5159C249.497 43.5159 250.798 43.7854 251.876 44.3245C252.954 44.8635 253.781 45.5842 254.355 46.4866C254.929 47.3772 255.216 48.3674 255.216 49.4573H251.964C251.964 48.9299 251.806 48.4202 251.49 47.928C251.185 47.4241 250.734 47.008 250.136 46.6799C249.55 46.3518 248.829 46.1877 247.974 46.1877C247.072 46.1877 246.339 46.3284 245.777 46.6096C245.226 46.8791 244.822 47.2248 244.564 47.6467C244.318 48.0686 244.195 48.5139 244.195 48.9827C244.195 49.3342 244.253 49.6506 244.37 49.9319C244.499 50.2014 244.722 50.4534 245.038 50.6877C245.355 50.9104 245.8 51.1213 246.374 51.3205C246.949 51.5198 247.681 51.719 248.572 51.9182C250.13 52.2698 251.413 52.6916 252.421 53.1838C253.429 53.676 254.179 54.2795 254.671 54.9944C255.163 55.7092 255.409 56.5764 255.409 57.5959C255.409 58.428 255.234 59.1897 254.882 59.8811C254.542 60.5725 254.044 61.1702 253.388 61.6741C252.743 62.1663 251.97 62.553 251.068 62.8342C250.177 63.1038 249.175 63.2385 248.062 63.2385C246.386 63.2385 244.968 62.9397 243.808 62.342C242.648 61.7444 241.769 60.9709 241.171 60.0217C240.574 59.0725 240.275 58.0705 240.275 57.0159H243.544C243.591 57.9065 243.849 58.6155 244.318 59.1428C244.786 59.6584 245.361 60.0276 246.04 60.2502C246.72 60.4612 247.394 60.5666 248.062 60.5666C248.952 60.5666 249.697 60.4495 250.294 60.2151C250.904 59.9807 251.367 59.6584 251.683 59.2483C251.999 58.8381 252.158 58.3694 252.158 57.842ZM262.951 35.887V62.887H259.681V35.887H262.951ZM274.57 43.8674L266.273 52.7444L261.632 57.5608L261.368 54.0979L264.691 50.1252L270.597 43.8674H274.57ZM271.599 62.887L264.814 53.8166L266.501 50.9163L275.431 62.887H271.599Z" fill="#5D35D7"/>
<ellipse cx="76.4812" cy="13.6531" rx="8.71954" ry="8.65306" fill="white"/>
<g filter="url(#filter0_d_103_17)">
<path d="M4 58.6488C4 50.8234 10.3438 44.4796 18.1692 44.4796V44.4796V75.3061V75.3061C10.3438 75.3061 4 68.9623 4 61.1369V58.6488Z" fill="white"/>
<path d="M13.1692 68.8242C10.6592 67.1883 9 64.3563 9 61.1369V58.6488C9 55.4294 10.6592 52.5974 13.1692 50.9615V68.8242Z" stroke="#213748" stroke-width="7.08462"/>
</g>
<g filter="url(#filter1_d_103_17)">
<path d="M105.365 61.1369C105.365 68.9623 99.0208 75.3061 91.1954 75.3061V75.3061V44.4796V44.4796C99.0208 44.4796 105.365 50.8234 105.365 58.6488V61.1369Z" fill="white"/>
<path d="M96.1954 50.9615C98.7054 52.5974 100.365 55.4294 100.365 58.6488V61.1369C100.365 64.3564 98.7054 67.1883 96.1954 68.8242V50.9615Z" stroke="#213748" stroke-width="7.08462"/>
</g>
<path d="M12.7195 46.102C12.7195 -8.47677 96.6451 -8.92413 96.6451 46.102" stroke="#213748" stroke-width="10"/>
<g filter="url(#filter2_d_103_17)">
<path d="M42.1479 103.158C42.1479 98.8272 45.6589 95.3163 49.9898 95.3163H59.3748C63.7057 95.3163 67.2166 98.8272 67.2166 103.158V103.158C67.2166 107.489 63.7057 111 59.3748 111H49.9898C45.6589 111 42.1479 107.489 42.1479 103.158V103.158Z" fill="white"/>
<path d="M49.9898 102.816H59.3748C59.5636 102.816 59.7166 102.969 59.7166 103.158C59.7166 103.347 59.5636 103.5 59.3748 103.5H49.9898C49.801 103.5 49.6479 103.347 49.6479 103.158C49.6479 102.969 49.801 102.816 49.9898 102.816Z" stroke="#213748" stroke-width="7.84184"/>
</g>
<path d="M66.6718 103.156C94.2235 106.082 99.1478 84.7269 98.1659 73.6837" stroke="#213748" stroke-width="10"/>
<path d="M28.5236 74.7653C49.9576 90.4369 71.2426 81.2951 79.2059 74.7653" stroke="#213748" stroke-width="10"/>
<defs>
<filter id="filter0_d_103_17" x="0" y="44.4796" width="22.1693" height="38.8265" filterUnits="userSpaceOnUse" color-interpolation-filters="sRGB">
<feFlood flood-opacity="0" result="BackgroundImageFix"/>
<feColorMatrix in="SourceAlpha" type="matrix" values="0 0 0 0 0 0 0 0 0 0 0 0 0 0 0 0 0 0 127 0" result="hardAlpha"/>
<feOffset dy="4"/>
<feGaussianBlur stdDeviation="2"/>
<feComposite in2="hardAlpha" operator="out"/>
<feColorMatrix type="matrix" values="0 0 0 0 0 0 0 0 0 0 0 0 0 0 0 0 0 0 0.25 0"/>
<feBlend mode="normal" in2="BackgroundImageFix" result="effect1_dropShadow_103_17"/>
<feBlend mode="normal" in="SourceGraphic" in2="effect1_dropShadow_103_17" result="shape"/>
</filter>
<filter id="filter1_d_103_17" x="87.1954" y="44.4796" width="22.1693" height="38.8265" filterUnits="userSpaceOnUse" color-interpolation-filters="sRGB">
<feFlood flood-opacity="0" result="BackgroundImageFix"/>
<feColorMatrix in="SourceAlpha" type="matrix" values="0 0 0 0 0 0 0 0 0 0 0 0 0 0 0 0 0 0 127 0" result="hardAlpha"/>
<feOffset dy="4"/>
<feGaussianBlur stdDeviation="2"/>
<feComposite in2="hardAlpha" operator="out"/>
<feColorMatrix type="matrix" values="0 0 0 0 0 0 0 0 0 0 0 0 0 0 0 0 0 0 0.25 0"/>
<feBlend mode="normal" in2="BackgroundImageFix" result="effect1_dropShadow_103_17"/>
<feBlend mode="normal" in="SourceGraphic" in2="effect1_dropShadow_103_17" result="shape"/>
</filter>
<filter id="filter2_d_103_17" x="38.1479" y="95.3163" width="33.0687" height="23.6837" filterUnits="userSpaceOnUse" color-interpolation-filters="sRGB">
<feFlood flood-opacity="0" result="BackgroundImageFix"/>
<feColorMatrix in="SourceAlpha" type="matrix" values="0 0 0 0 0 0 0 0 0 0 0 0 0 0 0 0 0 0 127 0" result="hardAlpha"/>
<feOffset dy="4"/>
<feGaussianBlur stdDeviation="2"/>
<feComposite in2="hardAlpha" operator="out"/>
<feColorMatrix type="matrix" values="0 0 0 0 0 0 0 0 0 0 0 0 0 0 0 0 0 0 0.25 0"/>
<feBlend mode="normal" in2="BackgroundImageFix" result="effect1_dropShadow_103_17"/>
<feBlend mode="normal" in="SourceGraphic" in2="effect1_dropShadow_103_17" result="shape"/>
</filter>
</defs>
</svg>
